<svg width="18" height="16" viewBox="0 0 18 16" fill="none" xmlns="http://www.w3.org/2000/svg">
<path d="M12.6373 8.22218L10.3584 8.22169V4.31409C10.3584 3.996 10.1004 3.73889 9.7832 3.73889C9.46599 3.73889 9.20801 3.99613 9.20801 4.31409V8.79701C9.20801 9.11498 9.46599 9.37221 9.7832 9.37221H12.637C12.9545 9.37221 13.2121 9.11497 13.2121 8.79714C13.212 8.48002 12.9544 8.22216 12.6373 8.22216V8.22218Z" fill="white" stroke="white" stroke-width="0.372981"/>
<path d="M15.2639 3.147C12.4012 0.284334 7.74296 0.284334 4.87922 3.147C3.61584 4.41076 2.86629 6.06487 2.74595 7.83688L1.99778 7.0313C1.78126 6.79884 1.41668 6.78497 1.1841 7.001C0.9509 7.21751 0.937528 7.5821 1.1538 7.81531L2.82007 9.60951C2.93354 9.73157 3.08761 9.79352 3.24217 9.79352C3.38238 9.79352 3.52284 9.74273 3.63387 9.63981L5.42855 7.97333C5.66175 7.75681 5.67512 7.39223 5.45885 7.1594C5.24258 6.92632 4.878 6.91234 4.64492 7.1291L3.90912 7.81214C4.03228 6.35797 4.65336 5.0022 5.69362 3.96137C8.10768 1.54769 12.0354 1.54769 14.4494 3.96137C16.8631 6.37531 16.8631 10.3034 14.4494 12.7171C13.2802 13.8864 11.7255 14.5305 10.0713 14.5305C8.4182 14.5305 6.86342 13.8867 5.69362 12.7171C5.46852 12.4921 5.10382 12.4921 4.87907 12.7171C4.65433 12.9421 4.65433 13.3069 4.87919 13.5316C6.26674 14.9186 8.11066 15.6821 10.0715 15.6821C12.0329 15.6821 13.8768 14.9184 15.2639 13.5316C18.1269 10.6686 18.1269 6.00967 15.264 3.14688L15.2639 3.147Z" fill="white" stroke="white" stroke-width="0.372981"/>
</svg>
