<svg width="84" height="36" viewBox="0 0 84 36" fill="none" xmlns="http://www.w3.org/2000/svg">
<path d="M31.8781 4.52296V19.0428C31.8781 21.2859 30.0577 23.1063 27.8146 23.1063L4.06348 23.1063C1.82037 23.1063 0.00431414 24.3961 0 26.6435L7.07307e-06 4.52296C7.52333e-06 2.27985 1.82038 0.459473 4.06349 0.459473L27.8146 0.459473C30.0577 0.459473 31.8781 2.27984 31.8781 4.52296Z" fill="url(#paint0_linear_106_184)"/>
<path d="M-0.000244141 26.6421C-0.000244082 24.3989 1.81581 23.1092 4.06324 23.1048L22.2238 23.1048L22.2626 31.6157C22.2756 34.0788 19.8082 35.7871 17.5047 34.9157L0.46132 27.3711C0.180931 27.246 -0.000245198 26.9699 0.00406848 26.6636L0.0040686 20.7108L-0.000244141 26.6421Z" fill="#373737"/>
<path d="M27.8561 24.6903C25.6829 24.6903 23.9213 26.4383 23.9213 28.5946C23.9213 30.7509 25.6829 32.4989 27.8561 32.4989C30.0292 32.4989 31.7909 30.7509 31.7909 28.5946C31.7909 26.4383 30.0292 24.6903 27.8561 24.6903Z" fill="#373737"/>
<path d="M44.2559 12.2111L47.5603 16.6333H45.6071L42.5362 12.6042V16.6333H40.841V8.03467H42.5362V11.8303L45.4843 8.03467H47.4374L44.2559 12.2111Z" fill="#242424"/>
<path d="M53.0058 15.8717C52.3834 16.4941 51.6136 16.8053 50.6964 16.8053C49.7793 16.8053 49.0095 16.4941 48.3871 15.8717C47.7647 15.2493 47.4535 14.4795 47.4535 13.5624C47.4535 12.6534 47.7647 11.8877 48.3871 11.2653C49.0177 10.6347 49.7874 10.3194 50.6964 10.3194C51.6054 10.3194 52.3752 10.6347 53.0058 11.2653C53.6364 11.8959 53.9516 12.6616 53.9516 13.5624C53.9516 14.4714 53.6364 15.2411 53.0058 15.8717ZM49.5049 14.7785C49.8243 15.0978 50.2215 15.2575 50.6964 15.2575C51.1714 15.2575 51.5686 15.0978 51.888 14.7785C52.2073 14.4591 52.367 14.0537 52.367 13.5624C52.367 13.071 52.2073 12.6656 51.888 12.3463C51.5686 12.0269 51.1714 11.8672 50.6964 11.8672C50.2215 11.8672 49.8243 12.0269 49.5049 12.3463C49.1937 12.6738 49.0381 13.0792 49.0381 13.5624C49.0381 14.0455 49.1937 14.4509 49.5049 14.7785Z" fill="#242424"/>
<path d="M62.2647 15.147V10.4914H63.8493V16.6333H55.0664V10.4914H56.651V15.147H58.6655V10.4914H60.2501V15.147H62.2647Z" fill="#242424"/>
<path d="M71.2688 14.2134H66.6378C66.8425 14.9832 67.4199 15.3681 68.3698 15.3681C68.9758 15.3681 69.4344 15.1633 69.7456 14.7539L71.0231 15.4909C70.4171 16.3672 69.5245 16.8053 68.3452 16.8053C67.3298 16.8053 66.5149 16.4982 65.9008 15.884C65.2866 15.2698 64.9795 14.4959 64.9795 13.5624C64.9795 12.6452 65.2825 11.8754 65.8885 11.253C66.4863 10.6306 67.2643 10.3194 68.2224 10.3194C69.1314 10.3194 69.8725 10.6306 70.4458 11.253C71.0354 11.8754 71.3302 12.6452 71.3302 13.5624C71.3302 13.7343 71.3097 13.9513 71.2688 14.2134ZM66.6132 12.985H69.7456C69.6555 12.5838 69.4712 12.2767 69.1928 12.0637C68.9226 11.8508 68.5991 11.7444 68.2224 11.7444C67.7966 11.7444 67.4444 11.8549 67.166 12.076C66.8876 12.2889 66.7033 12.5919 66.6132 12.985Z" fill="#242424"/>
<path d="M72.6018 10.4914H77.4662V16.6333H75.8816V12.0146H74.1864V14.066C74.1864 15.9577 73.3225 16.8135 71.5946 16.6333V15.147C71.9221 15.2289 72.1719 15.1715 72.3439 14.975C72.5159 14.7785 72.6018 14.4468 72.6018 13.98V10.4914Z" fill="#242424"/>
<path d="M80.4868 12.4568H81.6783C82.3744 12.4568 82.9353 12.6493 83.3612 13.0342C83.787 13.4109 83.9999 13.9145 83.9999 14.5451C83.9999 15.1756 83.787 15.6834 83.3612 16.0682C82.9353 16.4449 82.3744 16.6333 81.6783 16.6333H78.9022V10.4914H80.4868V12.4568ZM80.4868 15.233H81.6906C81.9117 15.233 82.0918 15.1715 82.2311 15.0487C82.3785 14.9177 82.4522 14.7498 82.4522 14.5451C82.4522 14.3403 82.3785 14.1725 82.2311 14.0414C82.0918 13.9104 81.9117 13.8449 81.6906 13.8449H80.4868V15.233Z" fill="#242424"/>
<path d="M42.3151 25.3655L45.2018 21.8769H46.381V28.0187H44.8333V24.5302L41.9466 28.0187H40.7673V21.8769H42.3151V25.3655Z" fill="#242424"/>
<path d="M50.3019 21.8769H55.7436V23.4001H53.8274V28.0187H52.2428V23.4001H50.3019V21.8769Z" fill="#242424"/>
<path d="M61.5828 27.2572C60.9605 27.8795 60.1907 28.1907 59.2735 28.1907C58.3563 28.1907 57.5865 27.8795 56.9641 27.2572C56.3418 26.6348 56.0306 25.865 56.0306 24.9478C56.0306 24.0388 56.3418 23.2731 56.9641 22.6507C57.5947 22.0202 58.3645 21.7049 59.2735 21.7049C60.1825 21.7049 60.9523 22.0202 61.5828 22.6507C62.2134 23.2813 62.5287 24.047 62.5287 24.9478C62.5287 25.8568 62.2134 26.6266 61.5828 27.2572ZM58.082 26.1639C58.4013 26.4833 58.7985 26.643 59.2735 26.643C59.7485 26.643 60.1456 26.4833 60.465 26.1639C60.7844 25.8445 60.9441 25.4392 60.9441 24.9478C60.9441 24.4565 60.7844 24.0511 60.465 23.7317C60.1456 23.4123 59.7485 23.2526 59.2735 23.2526C58.7985 23.2526 58.4013 23.4123 58.082 23.7317C57.7708 24.0593 57.6152 24.4646 57.6152 24.9478C57.6152 25.431 57.7708 25.8363 58.082 26.1639Z" fill="#242424"/>
<path d="M67.1352 24.5793V21.8769H68.7198V28.0187H67.1352V26.0656C66.6766 26.213 66.1893 26.2867 65.6734 26.2867C64.92 26.2867 64.3222 26.0943 63.88 25.7094C63.4378 25.3245 63.2167 24.7799 63.2167 24.0757V21.8769H64.8013V23.8914C64.8013 24.5056 65.1821 24.8127 65.9437 24.8127C66.3941 24.8127 66.7912 24.7349 67.1352 24.5793Z" fill="#242424"/>
<path d="M73.2773 24.911L75.82 28.0187H73.9774L71.7418 25.2303V28.0187H70.1572V21.8769H71.7418V24.5793L73.8546 21.8769H75.7463L73.2773 24.911Z" fill="#242424"/>
<path d="M80.8349 22.6016V21.8769H82.4195V28.0187H80.8349V27.294C80.36 27.8918 79.6925 28.1907 78.8327 28.1907C78.0138 28.1907 77.3095 27.8795 76.7199 27.2572C76.1384 26.6266 75.8477 25.8568 75.8477 24.9478C75.8477 24.047 76.1384 23.2813 76.7199 22.6507C77.3095 22.0202 78.0138 21.7049 78.8327 21.7049C79.6925 21.7049 80.36 22.0038 80.8349 22.6016ZM77.9114 26.2007C78.2308 26.5201 78.6361 26.6798 79.1275 26.6798C79.6188 26.6798 80.0242 26.5201 80.3436 26.2007C80.6712 25.8732 80.8349 25.4555 80.8349 24.9478C80.8349 24.4401 80.6712 24.0265 80.3436 23.7071C80.0242 23.3796 79.6188 23.2158 79.1275 23.2158C78.6361 23.2158 78.2308 23.3796 77.9114 23.7071C77.592 24.0265 77.4323 24.4401 77.4323 24.9478C77.4323 25.4555 77.592 25.8732 77.9114 26.2007Z" fill="#242424"/>
<defs>
<linearGradient id="paint0_linear_106_184" x1="11.4391" y1="4.94433" x2="32.7946" y2="-1.16209" gradientUnits="userSpaceOnUse">
<stop stop-color="#FF9704"/>
<stop offset="1" stop-color="#FFC702"/>
</linearGradient>
</defs>
</svg>
