<svg width="22" height="22" viewBox="0 0 22 22" fill="none" xmlns="http://www.w3.org/2000/svg">
<path fill-rule="evenodd" clip-rule="evenodd" d="M3.30005 3.3C3.30005 1.47746 4.77751 0 6.60005 0H15.4C17.2226 0 18.7 1.47746 18.7 3.3V18.7C18.7 20.5225 17.2226 22 15.4 22H6.60005C4.77751 22 3.30005 20.5225 3.30005 18.7V3.3ZM6.60005 2.2C5.99254 2.2 5.50005 2.69249 5.50005 3.3V18.7C5.50005 19.3075 5.99254 19.8 6.60005 19.8H15.4C16.0076 19.8 16.5 19.3075 16.5 18.7V3.3C16.5 2.69249 16.0076 2.2 15.4 2.2H6.60005Z" fill="#FF9704"/>
<path fill-rule="evenodd" clip-rule="evenodd" d="M8.80005 16.5C8.80005 15.8925 9.29254 15.4 9.90005 15.4H12.1C12.7076 15.4 13.2 15.8925 13.2 16.5C13.2 17.1075 12.7076 17.6 12.1 17.6H9.90005C9.29254 17.6 8.80005 17.1075 8.80005 16.5Z" fill="#FF9704"/>
</svg>
