<svg width="13" height="14" viewBox="0 0 13 14" fill="none" xmlns="http://www.w3.org/2000/svg">
<path fill-rule="evenodd" clip-rule="evenodd" d="M2.39467 0C1.86752 0 1.39208 0.33983 1.18933 0.861531L0.0978734 3.66998C0.00972545 3.8968 -0.0631368 4.25132 0.0847436 4.61751C0.390305 5.37417 1.18888 5.98177 2.4936 5.98177C3.30972 5.98177 3.86049 5.77752 4.26305 5.47756C4.37597 5.39341 4.49875 5.39709 4.57456 5.44222C5.04209 5.72056 5.70751 5.98177 6.5 5.98177C7.29249 5.98177 7.95791 5.72056 8.42544 5.44222C8.50125 5.39709 8.62403 5.39341 8.73695 5.47756C9.13951 5.77752 9.69028 5.98177 10.5064 5.98177C11.8111 5.98177 12.6097 5.37417 12.9153 4.61751C13.0631 4.25132 12.9903 3.8968 12.9021 3.66998L11.8107 0.861531C11.6079 0.33983 11.1325 0 10.6053 0H2.39467ZM2.39467 1.39999L10.6053 1.39999L11.6722 4.14519C11.5634 4.31096 11.2653 4.58178 10.5064 4.58178C9.90719 4.58178 9.62856 4.43703 9.48218 4.32795C9.00292 3.97083 8.34621 3.88805 7.79154 4.21827C7.47303 4.40789 7.02443 4.58178 6.5 4.58178C5.97557 4.58178 5.52697 4.40789 5.20846 4.21827C4.65379 3.88805 3.99708 3.97083 3.51782 4.32795C3.37144 4.43703 3.09281 4.58178 2.4936 4.58178C1.73471 4.58178 1.4366 4.31095 1.3278 4.14518L2.39467 1.39999Z" fill="#808080"/>
<path d="M2.07812 7.57278C2.07812 7.18619 1.7858 6.87279 1.42522 6.87279C1.06464 6.87279 0.772325 7.18619 0.772325 7.57278V12.6C0.772325 13.3732 1.35695 14 2.07812 14H4.51164C5.2328 14 5.81743 13.3732 5.81743 12.6V9.41822H7.18257L7.18257 12.6C7.18257 13.3732 7.76719 14 8.48836 14H10.9219C11.6431 14 12.2277 13.3732 12.2277 12.6V7.57278C12.2277 7.18619 11.9354 6.87279 11.5748 6.87279C11.2142 6.87279 10.9219 7.18619 10.9219 7.57278V12.6H8.48836V9.41822C8.48836 8.64503 7.90374 8.01824 7.18257 8.01824H5.81743C5.09626 8.01824 4.51163 8.64503 4.51163 9.41822V12.6H2.07812V7.57278Z" fill="#808080"/>
</svg>
