<svg width="19" height="19" viewBox="0 0 19 19" fill="none" xmlns="http://www.w3.org/2000/svg">
<path d="M0.000375187 14.6884C0.000375187 14.0711 0.500763 13.5707 1.11802 13.5707C3.05798 13.5707 4.63063 15.1434 4.63063 17.0833C4.63063 17.7005 4.13024 18.2009 3.51298 18.2009C2.89572 18.2009 2.39533 17.7005 2.39533 17.0833C2.39533 16.3778 1.82346 15.806 1.11802 15.806C0.500763 15.806 0.000375187 15.3056 0.000375187 14.6884Z" fill="#FF9704"/>
<path d="M1.11765 9.57942C0.500388 9.57942 0 10.0798 0 10.697C0 11.3143 0.500388 11.8146 1.11765 11.8146C4.46848 11.8146 7.18487 14.531 7.18487 17.8817C7.18487 18.499 7.68526 18.9994 8.30252 18.9994C8.91978 18.9994 9.42017 18.499 9.42017 17.8817C9.42017 13.2965 5.70301 9.57942 1.11765 9.57942Z" fill="#FF9704"/>
<path d="M0.000375187 5.90787C0.000375187 5.29063 0.500763 4.79025 1.11802 4.79025C8.34878 4.79025 14.2105 10.6518 14.2105 17.8824C14.2105 18.4996 13.7101 19 13.0928 19C12.4756 19 11.9752 18.4996 11.9752 17.8824C11.9752 11.8863 7.11425 7.02549 1.11802 7.02549C0.500763 7.02549 0.000375187 6.52511 0.000375187 5.90787Z" fill="#FF9704"/>
<path d="M1.11765 0C0.500388 0 0 0.500373 0 1.11762C0 1.73486 0.500388 2.23523 1.11765 2.23523C9.75928 2.23523 16.7647 9.24049 16.7647 17.8819C16.7647 18.4992 17.2651 18.9995 17.8824 18.9995C18.4996 18.9995 19 18.4992 19 17.8819C19 8.00602 10.9938 0 1.11765 0Z" fill="#FF9704"/>
</svg>
