<svg width="19" height="19" viewBox="0 0 19 19" fill="none" xmlns="http://www.w3.org/2000/svg">
<path fill-rule="evenodd" clip-rule="evenodd" d="M0 3.16667C0 1.41777 1.41776 0 3.16667 0H15.8333C17.5822 0 19 1.41777 19 3.16667V11.6111C19 13.36 17.5822 14.7778 15.8333 14.7778H10.5555V16.8894H13.7219C14.3049 16.8894 14.7775 17.362 14.7775 17.945C14.7775 18.5279 14.3049 19.0005 13.7219 19.0005H5.27748C4.69451 19.0005 4.22193 18.5279 4.22193 17.945C4.22193 17.362 4.69452 16.8894 5.27748 16.8894H8.44437V14.7778H3.16667C1.41777 14.7778 0 13.36 0 11.6111V3.16667ZM2.11111 3.16667C2.11111 2.5837 2.5837 2.11111 3.16667 2.11111H15.8333C16.4163 2.11111 16.8889 2.5837 16.8889 3.16667V11.6111C16.8889 12.1941 16.4163 12.6667 15.8333 12.6667H3.16667C2.5837 12.6667 2.11111 12.1941 2.11111 11.6111V3.16667Z" fill="#FF9704"/>
</svg>
