<svg width="16" height="16" viewBox="0 0 16 16" fill="none" xmlns="http://www.w3.org/2000/svg">
<path d="M1.6 9.60001C0.716346 9.60001 -3.86259e-08 8.88367 0 8.00001C3.86259e-08 7.11635 0.716346 6.4 1.6 6.40001L10.5373 6.40001L6.86867 2.73138C6.24383 2.10654 6.24383 1.09347 6.86867 0.468631C7.49351 -0.15621 8.50657 -0.15621 9.13141 0.468631L15.5314 6.8686C16.1562 7.49344 16.1562 8.50651 15.5314 9.13135L9.1314 15.5314C8.50656 16.1562 7.49349 16.1562 6.86865 15.5314C6.24381 14.9065 6.24381 13.8935 6.86865 13.2686L10.5372 9.60001L1.6 9.60001Z" fill="#FF9704"/>
</svg>
