<svg width="12" height="14" viewBox="0 0 12 14" fill="none" xmlns="http://www.w3.org/2000/svg">
<path fill-rule="evenodd" clip-rule="evenodd" d="M9.89541 7.30181C9.41881 6.89552 8.72529 6.89994 8.2548 7.31269C7.6213 7.86832 6.8035 8.17592 5.95395 8.17592C5.12049 8.17592 4.31469 7.87881 3.68688 7.34191C3.20956 6.9357 2.5177 6.94011 2.04664 7.35189C0.747554 8.49193 0 10.1371 0 11.8661C0 12.2185 0.0327017 12.5781 0.0967778 12.9353C0.209018 13.5587 0.738993 14 1.34552 14H10.6545L10.7607 13.9955C11.3222 13.9474 11.7985 13.5217 11.9033 12.9348C11.9674 12.5802 12 12.2202 12 11.8661C12 10.1076 11.2306 8.44314 9.89541 7.30181ZM5.95395 9.57589C7.10171 9.57589 8.21088 9.16331 9.08153 8.41153C10.0912 9.28805 10.6667 10.5448 10.6667 11.8661C10.6667 12.027 10.6576 12.1903 10.6397 12.3541L10.6061 12.6H1.39403L1.3604 12.3532C1.34241 12.1891 1.33333 12.026 1.33333 11.8661C1.33333 10.5681 1.89232 9.32588 2.87311 8.45137C3.73489 9.17738 4.8274 9.57589 5.95395 9.57589Z" fill="white"/>
<path fill-rule="evenodd" clip-rule="evenodd" d="M9.3333 3.5C9.3333 1.567 7.84091 0 5.99996 0C4.15902 0 2.66663 1.567 2.66663 3.5C2.66663 5.43299 4.15902 6.99999 5.99996 6.99999C7.84091 6.99999 9.3333 5.43299 9.3333 3.5ZM3.99997 3.5C3.99997 2.3402 4.8954 1.4 5.99996 1.4C7.10453 1.4 7.99997 2.3402 7.99997 3.5C7.99997 4.65979 7.10453 5.59999 5.99996 5.59999C4.8954 5.59999 3.99997 4.65979 3.99997 3.5Z" fill="white"/>
<path d="M5.99996 1.4C4.8954 1.4 3.99997 2.3402 3.99997 3.5C3.99997 4.65979 4.8954 5.59999 5.99996 5.59999C7.10453 5.59999 7.99997 4.65979 7.99997 3.5C7.99997 2.3402 7.10453 1.4 5.99996 1.4Z" fill="white"/>
<path d="M9.08153 8.41153C8.21088 9.16331 7.10171 9.57589 5.95395 9.57589C4.8274 9.57589 3.73489 9.17738 2.87311 8.45137C1.89232 9.32588 1.33333 10.5681 1.33333 11.8661C1.33333 12.026 1.34241 12.1891 1.3604 12.3532L1.39403 12.6H10.6061L10.6397 12.3541C10.6576 12.1903 10.6667 12.027 10.6667 11.8661C10.6667 10.5448 10.0912 9.28805 9.08153 8.41153Z" fill="white"/>
</svg>
