<svg width="22" height="20" viewBox="0 0 22 20" fill="none" xmlns="http://www.w3.org/2000/svg">
<path fill-rule="evenodd" clip-rule="evenodd" d="M0 10C0 2.49944 2.6246 0 10.5005 0C18.3754 0 21 2.49944 21 10C21 17.4994 18.3754 20 10.5005 20C2.6246 20 0 17.4994 0 10Z" fill="#8F8F8F"/>
<path fill-rule="evenodd" clip-rule="evenodd" d="M20.8375 12.8369H16.4496C14.8518 12.8369 13.5562 11.4929 13.5562 9.83441C13.5562 8.17703 14.8518 6.83307 16.4496 6.83307H20.8031" fill="#8F8F8F"/>
<path d="M20.8375 12.8369H16.4496C14.8518 12.8369 13.5562 11.4929 13.5562 9.83441C13.5562 8.17703 14.8518 6.83307 16.4496 6.83307H20.8031" stroke="white" stroke-width="1.75664" stroke-linecap="round" stroke-linejoin="round"/>
<path fill-rule="evenodd" clip-rule="evenodd" d="M16.9435 9.76573H16.608H16.9435Z" fill="#8F8F8F"/>
<path d="M16.9435 9.76573H16.608" stroke="white" stroke-width="1.75664" stroke-linecap="round" stroke-linejoin="round"/>
<path fill-rule="evenodd" clip-rule="evenodd" d="M5.52307 5.18748H10.1067H5.52307Z" fill="#8F8F8F"/>
<path d="M5.52307 5.18748H10.1067" stroke="white" stroke-width="1.75664" stroke-linecap="round" stroke-linejoin="round"/>
</svg>
